<svg width="30" height="30" viewBox="0 0 30 30" fill="none" xmlns="http://www.w3.org/2000/svg">
<path opacity="0.4" d="M15.3616 15.9716C15.2969 15.9623 15.2136 15.9623 15.1396 15.9716C13.5116 15.9161 12.2166 14.5841 12.2166 12.9468C12.2166 11.2726 13.5671 9.91284 15.2506 9.91284C16.9248 9.91284 18.2846 11.2726 18.2846 12.9468C18.2753 14.5841 16.9896 15.9161 15.3616 15.9716Z" stroke="#101C16" stroke-width="1.3875" stroke-linecap="round" stroke-linejoin="round"/>
<path opacity="0.34" d="M21.4842 22.0766C19.8377 23.5843 17.6547 24.5001 15.2497 24.5001C12.8447 24.5001 10.6617 23.5843 9.0152 22.0766C9.1077 21.2071 9.6627 20.3561 10.6524 19.6901C13.1869 18.0066 17.3309 18.0066 19.8469 19.6901C20.8367 20.3561 21.3917 21.2071 21.4842 22.0766Z" stroke="#101C16" stroke-width="1.3875" stroke-linecap="round" stroke-linejoin="round"/>
<path d="M15.25 24.4999C20.3585 24.4999 24.4999 20.3585 24.4999 15.25C24.4999 10.1414 20.3585 6 15.25 6C10.1414 6 6 10.1414 6 15.25C6 20.3585 10.1414 24.4999 15.25 24.4999Z" stroke="#101C16" stroke-width="1.3875" stroke-linecap="round" stroke-linejoin="round"/>
</svg>
